<?xml version="1.0" encoding="utf-8"?>
<svg xmlns="http://www.w3.org/2000/svg" fill="none" height="100%" viewBox="0 0 21 24" width="100%">
  <path d="M12.743 0.427002H3.70504L3.39204 2.38392C3.17489 3.74148 4.2232 4.97167 5.59649 4.97167H10.892C12.9137 4.97167 14.4547 6.78025 14.1342 8.77763C13.8168 10.76 12.108 12.2165 10.1012 12.2165H9.31351H8.15287H3.72001C2.62378 12.2165 1.68928 13.0136 1.51556 14.097L0 23.5384H4.43736C5.5306 23.5384 6.46359 22.7443 6.63582 21.6639L7.42355 16.7462H11.7381C16.0332 16.7462 19.6918 13.625 20.3717 9.38299C21.125 4.68548 17.4978 0.427002 12.743 0.427002Z" fill="url(#paint0_linear_1057_4705)"/>
  <defs>
    <linearGradient gradientUnits="userSpaceOnUse" id="paint0_linear_1057_4705" x1="0" x2="20.4727" y1="11.982" y2="11.982">
      <stop stop-color="#E90083"/>
      <stop offset="1" stop-color="#FF6864"/>
    </linearGradient>
  </defs>
</svg>