<?xml version="1.0" encoding="utf-8"?>
<svg viewBox="27.0873 11.911 146.0003 34" width="146px" height="34px" xmlns="http://www.w3.org/2000/svg">
  <defs>
    <linearGradient id="paint0_linear_1397_573" x1="27" y1="3.5" x2="27" y2="50.8571" gradientUnits="userSpaceOnUse">
      <stop stop-color="white"/>
      <stop offset="1" stop-color="#FFD6EA"/>
    </linearGradient>
  </defs>
  <path d="M73.3725 12.6305L72.7537 16.3707C72.5001 17.9118 71.1294 19.0454 69.5223 19.0454H63.0614L63.6801 15.3051C63.9337 13.764 65.3045 12.6305 66.9115 12.6305H73.3725ZM67.9545 22.2528H62.5322L59.3202 41.7012C59.0031 43.6266 60.5336 45.3717 62.5432 45.3717H67.9654L71.1775 25.9231C71.4945 23.9977 69.964 22.2528 67.9545 22.2528ZM45.6046 12.605H32.4093L31.9523 15.3773C31.6353 17.3005 33.1658 19.0432 35.1708 19.0432H42.9021C45.8538 19.0432 48.1037 21.6054 47.6358 24.435C47.1723 27.2434 44.6775 29.3067 41.7477 29.3067H40.5976H38.9031H32.4312C30.8307 29.3067 29.4663 30.436 29.2127 31.9707L27 45.346H33.4785C35.0746 45.346 36.4367 44.221 36.6882 42.6905L37.8383 35.7237H44.1375C50.4082 35.7237 55.7498 31.3021 56.7425 25.2926C57.8421 18.6378 52.5466 12.605 45.6046 12.605ZM142.753 12.6283H133.903C132.827 12.6283 131.821 13.1484 131.22 14.0145L124.811 23.2484L121.717 14.7426C121.256 13.4774 120.025 12.6305 118.641 12.6305H110.376L105.577 41.6802C105.26 43.6033 106.79 45.3481 108.798 45.3481H114.222L117.15 27.6212L118.739 31.9941L119.413 33.843C119.857 35.0614 120.893 36.0251 122.196 36.2883C123.714 36.5961 125.229 35.9743 126.066 34.7685L127.992 31.9941L131.027 27.6212L128.1 45.3481H134.593C136.183 45.3481 137.536 44.2275 137.788 42.7055L142.753 12.6305V12.6283ZM103.95 19.6037L105.092 12.6283H88.9687C83.028 12.6283 77.9686 16.8165 77.0262 22.5097L75.4978 31.7669C74.3193 38.9014 79.9954 45.3673 87.4402 45.3673C94.4938 45.3673 100.504 40.3938 101.622 33.6307L101.948 31.6587C102.262 29.7503 100.745 28.0203 98.7529 28.0203H89.3315L88.5006 33.0554C88.3805 33.7793 88.9577 34.4352 89.712 34.4352H90.7964C91.5508 34.4352 92.128 35.0912 92.0078 35.8149C91.6513 37.9696 89.7426 39.5553 87.4992 39.566C85.3763 39.5766 83.7671 37.6978 84.1038 35.6621L86.3362 22.1467C86.7078 19.9008 88.7652 18.2727 91.1331 18.4022C92.9392 18.502 94.3211 20.0197 94.3211 21.7773C94.3211 22.0363 94.5374 22.2443 94.802 22.2443H100.756C102.345 22.2443 103.701 21.1214 103.95 19.5973V19.6037ZM163.87 12H157.193C151.98 12 147.54 15.6745 146.715 20.6714L144.227 35.7364C143.337 41.1219 147.623 46 153.24 46H159.917C165.13 46 169.57 42.3254 170.395 37.3286L172.883 22.2634C173.773 16.8781 169.487 12 163.87 12ZM163.632 22.2634L161.391 35.832C161.034 37.993 159.112 39.5828 156.856 39.5828C154.75 39.5828 153.143 37.753 153.476 35.7344L155.717 22.1658C156.073 20.0049 157.995 18.4149 160.251 18.4149C162.357 18.4149 163.964 20.2447 163.632 22.2634Z" fill="url(#paint0_linear_1397_573)" transform="matrix(1, 0, 0, 1, 0.08730300515890121, -0.08898200094699948)"/>
</svg>