<svg width="14" height="15" viewBox="0 0 14 15" fill="none" xmlns="http://www.w3.org/2000/svg">
<path d="M6.40009 1.87998C7.76009 1.87998 8.76009 2.55998 9.72009 2.55998C10.1601 2.55998 10.5201 2.35998 10.5201 1.87998H11.9201V2.19998C11.9201 5.27998 8.08009 7.07998 8.08009 12.16V12.96H4.72009V12.52C4.72009 7.55998 7.24009 7.35998 9.56009 4.27998L9.52009 4.23998C8.88009 4.59998 8.20009 4.67998 7.56009 4.67998C7.16009 4.67998 6.72009 4.59998 6.28009 4.51998C5.84009 4.43998 5.40009 4.35998 5.08009 4.35998C4.28009 4.35998 3.64009 5.07998 3.64009 6.43998V6.99998H2.08009V1.87998H3.64009V3.11998H3.76009C4.44009 2.19998 5.16009 1.87998 6.40009 1.87998ZM6.40009 0.639976C5.68009 0.639976 5.04009 0.759976 4.48009 0.999976C4.24009 0.799976 3.96009 0.679976 3.64009 0.679976H2.08009C1.40009 0.679976 0.840088 1.23998 0.840088 1.91998V6.99998C0.840088 7.67998 1.40009 8.23998 2.08009 8.23998H3.64009C4.32009 8.23998 4.88009 7.67998 4.88009 6.99998V6.47998C4.88009 5.91998 5.04009 5.71998 5.08009 5.63998C5.28009 5.63998 5.64009 5.71998 6.00009 5.75998H6.08009C6.20009 5.75998 6.28009 5.79998 6.40009 5.79998C4.88009 7.23998 3.48009 8.71998 3.48009 12.48V12.92C3.48009 13.6 4.04009 14.16 4.72009 14.16H8.08009C8.76009 14.16 9.32009 13.6 9.32009 12.92V12.12C9.32009 9.63997 10.3601 8.07998 11.4001 6.51998C12.2801 5.19998 13.1601 3.87998 13.1601 2.15998V1.83998C13.1601 1.15998 12.6001 0.599976 11.9201 0.599976H10.5201C10.0401 0.599976 9.64009 0.839976 9.44009 1.23998C9.24009 1.19998 9.00009 1.11998 8.72009 1.03998C8.08009 0.879976 7.32009 0.639976 6.40009 0.639976Z" fill="#E90083"/>
</svg>
