<svg width="8" height="13" viewBox="0 0 8 13" fill="none" xmlns="http://www.w3.org/2000/svg">
<path d="M6.7158 0.784202C6.62284 0.690473 6.51223 0.616079 6.39038 0.56531C6.26852 0.514542 6.13781 0.488403 6.0058 0.488403C5.87379 0.488403 5.74308 0.514542 5.62122 0.56531C5.49936 0.616079 5.38876 0.690473 5.2958 0.784202L0.295798 5.7842C0.20207 5.87716 0.127676 5.98777 0.0769069 6.10962C0.0261382 6.23148 0 6.36219 0 6.4942C0 6.62621 0.0261382 6.75692 0.0769069 6.87878C0.127676 7.00064 0.20207 7.11124 0.295798 7.2042L5.2958 12.2042C5.38876 12.2979 5.49936 12.3723 5.62122 12.4231C5.74308 12.4739 5.87379 12.5 6.0058 12.5C6.13781 12.5 6.26852 12.4739 6.39038 12.4231C6.51223 12.3723 6.62284 12.2979 6.7158 12.2042C6.80953 12.1112 6.88392 12.0006 6.93469 11.8788C6.98546 11.7569 7.0116 11.6262 7.0116 11.4942C7.0116 11.3622 6.98546 11.2315 6.93469 11.1096C6.88392 10.9878 6.80953 10.8772 6.7158 10.7842L2.4158 6.4942L6.7158 2.2042C6.80953 2.11124 6.88392 2.00064 6.93469 1.87878C6.98546 1.75692 7.0116 1.62621 7.0116 1.4942C7.0116 1.36219 6.98546 1.23148 6.93469 1.10962C6.88392 0.987766 6.80953 0.877165 6.7158 0.784202Z" fill="#E6E3E8"/>
</svg>
