<svg viewBox="0 0 8 13"  xmlns="http://www.w3.org/2000/svg">
<path d="M0.295799 12.2042C0.388762 12.2979 0.499363 12.3723 0.621222 12.4231C0.743082 12.4739 0.873787 12.5 1.0058 12.5C1.13781 12.5 1.26852 12.4739 1.39038 12.4231C1.51224 12.3723 1.62284 12.2979 1.7158 12.2042L6.7158 7.2042C6.80953 7.11124 6.88392 7.00064 6.93469 6.87878C6.98546 6.75692 7.0116 6.62621 7.0116 6.4942C7.0116 6.36219 6.98546 6.23148 6.93469 6.10962C6.88392 5.98777 6.80953 5.87716 6.7158 5.7842L1.7158 0.784203C1.62284 0.690474 1.51223 0.616078 1.39038 0.565309C1.26852 0.514541 1.13781 0.488403 1.0058 0.488403C0.873786 0.488403 0.743081 0.514541 0.621221 0.56531C0.499362 0.616078 0.388761 0.690474 0.295798 0.784203C0.20207 0.877166 0.127676 0.987766 0.0769071 1.10962C0.0261385 1.23148 -1.15408e-08 1.36219 0 1.4942C1.15408e-08 1.62621 0.0261385 1.75692 0.0769072 1.87878C0.127676 2.00064 0.20207 2.11124 0.295798 2.2042L4.5958 6.4942L0.295799 10.7842C0.202071 10.8772 0.127677 10.9878 0.076908 11.1096C0.0261393 11.2315 8.62687e-07 11.3622 8.74228e-07 11.4942C8.85769e-07 11.6262 0.0261394 11.7569 0.0769081 11.8788C0.127677 12.0006 0.202071 12.1112 0.295799 12.2042Z" />
</svg>
