<?xml version="1.0" encoding="utf-8"?>
<svg viewBox="16.7257 9.9469 38.0004 30" xmlns="http://www.w3.org/2000/svg">
  <defs>
    <linearGradient id="gradient-2" x1="28" y1="0" x2="28" y2="30" gradientUnits="userSpaceOnUse" gradientTransform="matrix(1, 0, 0, 1, 7.725961, 9.947115)">
      <stop stop-color="#FFB3D3"/>
      <stop offset="1" stop-color="white"/>
    </linearGradient>
  </defs>
  <path d="M 48.879 12.44 C 46.472 11.278 43.866 10.434 41.152 9.947 C 41.128 9.946 41.104 9.951 41.082 9.961 C 41.061 9.97 41.041 9.985 41.025 10.003 C 40.699 10.622 40.319 11.428 40.066 12.046 C 37.187 11.597 34.259 11.597 31.38 12.046 C 31.127 11.409 30.747 10.622 30.403 10.003 C 30.385 9.966 30.331 9.947 30.276 9.947 C 27.562 10.434 24.974 11.278 22.549 12.44 C 22.531 12.44 22.513 12.459 22.495 12.478 C 17.573 20.107 16.216 27.53 16.885 34.878 C 16.885 34.915 16.903 34.953 16.94 34.972 C 20.197 37.446 23.327 38.946 26.422 39.939 C 26.476 39.958 26.53 39.939 26.549 39.902 C 27.272 38.871 27.924 37.783 28.485 36.64 C 28.521 36.565 28.485 36.49 28.412 36.471 C 27.381 36.059 26.404 35.572 25.445 35.009 C 25.372 34.972 25.372 34.859 25.427 34.803 C 25.626 34.653 25.825 34.484 26.024 34.334 C 26.06 34.297 26.114 34.297 26.15 34.316 C 32.375 37.259 39.089 37.259 45.241 34.316 C 45.278 34.297 45.332 34.297 45.368 34.334 C 45.567 34.503 45.766 34.653 45.965 34.822 C 46.038 34.878 46.038 34.99 45.947 35.028 C 45.006 35.609 44.011 36.078 42.979 36.49 C 42.907 36.509 42.889 36.603 42.907 36.659 C 43.486 37.802 44.138 38.889 44.843 39.92 C 44.898 39.939 44.952 39.958 45.006 39.939 C 48.119 38.946 51.249 37.446 54.506 34.972 C 54.543 34.953 54.561 34.915 54.561 34.878 C 55.357 26.386 53.24 19.02 48.951 12.478 C 48.933 12.459 48.915 12.44 48.879 12.44 Z M 29.426 30.398 C 27.562 30.398 26.006 28.617 26.006 26.424 C 26.006 24.231 27.526 22.45 29.426 22.45 C 31.344 22.45 32.864 24.25 32.846 26.424 C 32.846 28.617 31.326 30.398 29.426 30.398 Z M 42.038 30.398 C 40.175 30.398 38.618 28.617 38.618 26.424 C 38.618 24.231 40.138 22.45 42.038 22.45 C 43.957 22.45 45.477 24.25 45.459 26.424 C 45.459 28.617 43.957 30.398 42.038 30.398 Z" fill="url(#gradient-2)"/>
</svg>