<svg viewBox="0 0 50 41" fill="none" xmlns="http://www.w3.org/2000/svg">
<path class="force-white-fill" d="M49.7415 39.4405L26.6608 -0.549617C26.3152 -1.14206 25.6857 -1.5 25.0068 -1.5C24.328 -1.5 23.6862 -1.14206 23.3529 -0.549617L0.259867 39.4405C-0.085727 40.033 -0.085727 40.7612 0.259867 41.3536C0.60546 41.9461 1.23493 42.304 1.91378 42.304H48.0876C48.7664 42.304 49.4082 41.9461 49.7415 41.3536C50.0747 40.7612 50.0871 40.033 49.7415 39.4405ZM5.2216 38.4901L25.0068 4.23932L44.7797 38.4901H5.2216ZM16.8854 33.7382C16.8854 35.3921 15.54 36.7251 13.8985 36.7251C12.2569 36.7251 10.8992 35.3798 10.8992 33.7382C10.8992 32.0966 12.2446 30.739 13.8985 30.739C15.5524 30.739 16.8854 32.0843 16.8854 33.7382ZM27.9938 33.7382C27.9938 35.3921 26.6484 36.7251 25.0068 36.7251C23.3653 36.7251 22.0076 35.3798 22.0076 33.7382C22.0076 32.0966 23.3529 30.739 25.0068 30.739C26.6608 30.739 27.9938 32.0843 27.9938 33.7382ZM25.0068 13.4593C26.6608 13.4593 27.9938 14.8046 27.9938 16.4585C27.9938 18.1124 26.6484 19.4454 25.0068 19.4454C23.3653 19.4454 22.0076 18.1001 22.0076 16.4585C22.0076 14.817 23.3529 13.4593 25.0068 13.4593ZM33.116 33.7382C33.116 32.0843 34.4613 30.739 36.1152 30.739C37.7691 30.739 39.1021 32.0843 39.1021 33.7382C39.1021 35.3921 37.7568 36.7251 36.1152 36.7251C34.4736 36.7251 33.116 35.3798 33.116 33.7382ZM22.4396 25.0984C22.4396 26.7523 21.0942 28.0853 19.4527 28.0853C17.8111 28.0853 16.4534 26.7399 16.4534 25.0984C16.4534 23.4568 17.7987 22.0991 19.4527 22.0991C21.1066 22.0991 22.4396 23.4445 22.4396 25.0984ZM27.5618 25.0984C27.5618 23.4445 28.9071 22.0991 30.561 22.0991C32.2149 22.0991 33.5479 23.4445 33.5479 25.0984C33.5479 26.7523 32.2026 28.0853 30.561 28.0853C28.9195 28.0853 27.5618 26.7399 27.5618 25.0984Z" fill="url(#paint0_linear_1_6451)"/>
<defs>
<linearGradient id="paint0_linear_1_6451" x1="24.9984" y1="-1.5" x2="24.9984" y2="42.304" gradientUnits="userSpaceOnUse">
<stop stop-color="#FF6864"/>
<stop offset="1" stop-color="#E90083"/>
</linearGradient>
</defs>
</svg>
