<svg width="18" height="14" viewBox="0 0 18 14" fill="none" xmlns="http://www.w3.org/2000/svg">
<path d="M15.4128 3.0793C15.3007 3.17796 15.1543 3.23343 15.002 3.23502H0.579723C0.0678753 3.23502 -0.190673 2.67492 0.163683 2.34715L2.53262 0.162002C2.64272 0.0602919 2.78908 0.00238719 2.9421 0H17.4208C17.9379 0 18.1912 0.565124 17.8316 0.894152L15.4128 3.0793ZM15.4128 13.8493C15.2999 13.9461 15.1536 13.9998 15.002 14H0.579723C0.0678753 14 -0.190673 13.4449 0.163683 13.1172L2.53262 10.9257C2.64301 10.8252 2.78972 10.7694 2.9421 10.77H17.4208C17.9379 10.77 18.1912 11.3301 17.8316 11.6579L15.4128 13.8493ZM15.4128 5.53821C15.2999 5.44137 15.1536 5.38773 15.002 5.38751H0.579723C0.0678753 5.38751 -0.190673 5.94259 0.163683 6.27036L2.53262 8.46179C2.64442 8.56016 2.79022 8.61561 2.9421 8.61751H17.4208C17.9379 8.61751 18.1912 8.05741 17.8316 7.72964L15.4128 5.53821Z" fill="white"/>
</svg>
